FILE "Arcade Hits - Frisky Tom (Japan).bin" BINARY
  TRACK 01 MODE2/2352
    INDEX 01 00:00:00
  TRACK 02 AUDIO
    INDEX 00 02:58:18
    INDEX 01 03:00:18
  TRACK 03 AUDIO
    INDEX 00 04:55:02
    INDEX 01 04:57:02
  TRACK 04 AUDIO
    INDEX 00 06:45:30
    INDEX 01 06:47:30
